[code]
Format                           : AVI
Format/Info                      : Audio Video Interleave
File size                        : 550 MiB
Duration                         : 1h 1mn
Overall bit rate                 : 1 250 Kbps
Writing application              : transcode-1.1.5

Video
ID                               : 0
Format                           : MPEG-4 Visual
Format profile                   : Advanced Simple@L5
Format settings, BVOP            : 2
Format settings, QPel            : No
Format settings, GMC             : No warppoints
Format settings, Matrix          : Default (H.263)
Codec ID                         : XVID
Codec ID/Hint                    : XviD
Duration                         : 1h 1mn
Bit rate                         : 1 109 Kbps
Width                            : 624 pixels
Height                           : 352 pixels
Display aspect ratio             : 16:9
Frame rate                       : 25.000 fps
Color space                      : YUV
Chroma subsampling               : 4:2:0
Bit depth                        : 8 bits
Scan type                        : Progressive
Compression mode                 : Lossy
Bits/(Pixel*Frame)               : 0.202
Stream size                      : 487 MiB (89%)
Writing library                  : XviD 1.2.1 (UTC 2008-12-04)

Audio
ID                               : 1
Format                           : MPEG Audio
Format version                   : Version 1
Format profile                   : Layer 3
Mode                             : Joint stereo
Mode extension                   : MS Stereo
Codec ID                         : 55
Codec ID/Hint                    : MP3
Duration                         : 1h 1mn
Bit rate mode                    : Variable
Bit rate                         : 128 Kbps
Channel(s)                       : 2 channels
Sampling rate                    : 48.0 KHz
Compression mode                 : Lossy
Stream size                      : 56.7 MiB (10%)
Alignment                        : Aligned on interleaves
Interleave, duration             : 24 ms (0.60 video frame)
[/code]

Plot:
Jeremy Clarkson, Richard Hammond and James May head to Albania to test the super luxurious Rolls-Royce Ghost, Bentley Mulsanne and Mercedes S65 AMG. Back on home soil, Jeremy is out on the track in a trio of high-powered hatchbacks, the Ford Focus RS500, the Prodrive Impreza CS400 and the one-off Volvo C30 PPC, whilst Jonathan Ross is the Star in the Reasonably Priced Car. 
